<?xml version="1.0" encoding="UTF-8" standalone="no"?>
<!-- Created with Inkscape (http://www.inkscape.org/) -->

<svg
   width="256"
   height="256"
   viewBox="0 0 67.733332 67.733333"
   version="1.1"
   id="svg1"
   xml:space="preserve"
   inkscape:version="1.3 (0e150ed6c4, 2023-07-21)"
   sodipodi:docname="MessageNotification.svg"
   inkscape:export-filename="MessageNotification.png"
   inkscape:export-xdpi="96"
   inkscape:export-ydpi="96"
   xmlns:inkscape="http://www.inkscape.org/namespaces/inkscape"
   xmlns:sodipodi="http://sodipodi.sourceforge.net/DTD/sodipodi-0.dtd"
   xmlns="http://www.w3.org/2000/svg"
   xmlns:svg="http://www.w3.org/2000/svg"><sodipodi:namedview
     id="namedview1"
     pagecolor="#ffffff"
     bordercolor="#666666"
     borderopacity="1.0"
     inkscape:showpageshadow="2"
     inkscape:pageopacity="0.0"
     inkscape:pagecheckerboard="true"
     inkscape:deskcolor="#d1d1d1"
     inkscape:document-units="mm"
     inkscape:zoom="2.9757807"
     inkscape:cx="210.70101"
     inkscape:cy="124.84119"
     inkscape:window-width="2560"
     inkscape:window-height="1377"
     inkscape:window-x="-8"
     inkscape:window-y="-8"
     inkscape:window-maximized="1"
     inkscape:current-layer="layer4" /><defs
     id="defs1" /><g
     inkscape:groupmode="layer"
     id="layer2"
     inkscape:label="Speech Bubble 1"
     style="display:none;stroke:#ffffff;stroke-width:1.76389;stroke-dasharray:none"><path
       fill="#8ccaf7"
       d="M 32.231516,2.598186 C 14.467005,3.7592604 0.79769996,15.901406 1.7007707,29.718445 2.2109379,37.524036 7.2661635,44.192679 14.767568,48.3092 14.100865,52.496571 12.318975,58.759636 7.6106852,65.224738 17.788074,62.836709 24.040642,57.401292 27.797747,52.390993 c 2.4895,0.307475 5.061105,0.415777 7.704072,0.243035 C 53.266322,51.472954 66.935634,39.330806 66.032563,25.51377 65.129492,11.696731 49.996019,1.4371122 32.231516,2.598186 Z"
       id="path1-7"
       style="stroke:#ffffff;stroke-width:1.76389;stroke-dasharray:none" /></g><g
     inkscape:groupmode="layer"
     id="layer3"
     inkscape:label="Speech Bubble 2"
     style="display:inline"><g
       id="g6"
       style="display:none"><g
         id="g5"
         transform="matrix(1.7999111,-0.21055785,0.18320941,1.5661285,-1.3699732,10.683004)"
         style="stroke-width:0.15652"><path
           fill="#bdddf4"
           d="M 18,1 C 8.059,1 0,7.268 0,15 0,19.368 2.574,23.268 6.604,25.835 6.08,28.144 4.859,31.569 2,35 7.758,34.04 11.439,31.239 13.716,28.584 15.092,28.846 16.521,29 18,29 27.941,29 36,22.732 36,15 36,7.268 27.941,1 18,1 Z"
           id="path1-0"
           style="stroke-width:0.15652" /><circle
           fill="#2a6797"
           cx="18"
           cy="15"
           r="2"
           id="circle1"
           style="stroke-width:0.15652" /><circle
           fill="#2a6797"
           cx="26"
           cy="15"
           r="2"
           id="circle2"
           style="stroke-width:0.15652" /><circle
           fill="#2a6797"
           cx="10"
           cy="15"
           r="2"
           id="circle3"
           style="stroke-width:0.15652" /></g></g><path
       fill="#bdddf4"
       d="M 31.211636,8.4590912 C 13.31872,10.552247 -0.03840721,22.065626 1.3781679,34.174931 2.1784267,41.015781 7.5259145,46.581706 15.249855,49.75341 14.729732,53.479933 13.159533,59.101014 8.6421783,65.076386 18.830185,62.36051 24.942489,57.198721 28.554465,52.56121 31.079144,52.681808 33.679431,52.6221 36.341499,52.310689 54.234416,50.217534 67.591543,38.704154 66.174968,26.594849 64.758392,14.485543 49.104552,6.3659356 31.211636,8.4590912 Z"
       id="path6"
       style="display:inline;stroke:#ffffff;stroke-width:1.76389;stroke-dasharray:none" /></g><g
     inkscape:groupmode="layer"
     id="layer4"
     inkscape:label="Email"
     style="display:none"><g
       id="g1"
       transform="matrix(1.6357213,-0.27028317,0.27035289,1.6361434,-0.28790985,7.7859541)"
       style="stroke-width:0.159569"><path
         fill="#ccd6dd"
         d="m 36,27 c 0,2.209 -1.791,4 -4,4 H 4 C 1.791,31 0,29.209 0,27 V 9 C 0,6.791 1.791,5 4,5 h 28 c 2.209,0 4,1.791 4,4 z"
         id="path1"
         style="stroke-width:0.159569" /><path
         fill="#99aab5"
         d="M 11.95,17.636 0.637,28.949 C 0.61,28.977 0.6,29.012 0.577,29.04 c 0.34,0.57 0.814,1.043 1.384,1.384 0.029,-0.023 0.063,-0.033 0.09,-0.06 L 13.365,19.05 c 0.39,-0.391 0.39,-1.023 0,-1.414 -0.392,-0.391 -1.024,-0.391 -1.415,0 M 35.423,29.04 C 35.402,29.012 35.39,28.977 35.363,28.95 L 24.051,17.636 c -0.392,-0.391 -1.024,-0.391 -1.415,0 -0.391,0.392 -0.391,1.024 0,1.414 l 11.313,11.314 c 0.026,0.026 0.062,0.037 0.09,0.06 0.571,-0.34 1.044,-0.814 1.384,-1.384"
         id="path2"
         style="stroke-width:0.159569" /><path
         fill="#99aab5"
         d="M 32,5 H 4 C 1.791,5 0,6.791 0,9 v 1.03 l 14.528,14.496 c 1.894,1.893 4.988,1.893 6.884,0 L 36,10.009 V 9 C 36,6.791 34.209,5 32,5 Z"
         id="path3"
         style="stroke-width:0.159569" /><path
         fill="#e1e8ed"
         d="M 32,5 H 4 C 2.412,5 1.051,5.934 0.405,7.275 l 14.766,14.767 c 1.562,1.562 4.096,1.562 5.657,0 L 35.595,7.275 C 34.949,5.934 33.589,5 32,5 Z"
         id="path4"
         style="stroke-width:0.159569" /></g><g
       id="g12"
       transform="matrix(1.6357213,-0.27028317,0.27035289,1.6361434,-0.28790985,7.7859541)"
       style="stroke-width:0.159569"><path
         id="path9"
         style="fill:none;stroke:#ffffff;stroke-width:1.06379;stroke-dasharray:none"
         d="m 32.584146,5.0426662 c -0.03714,-0.00549 -0.07512,-0.00815 -0.112598,-0.0126 -0.03554,-0.00418 -0.07094,-0.00839 -0.106755,-0.011634 -0.120228,-0.010985 -0.241463,-0.01855 -0.36467,-0.01855 l -28.0000734,3.97e-5 c -0.1229004,0 -0.243895,0.00759 -0.3638498,0.018539 -0.036606,0.00331 -0.072764,0.0077 -0.1090794,0.011986 -0.085166,0.010154 -0.1693919,0.022995 -0.2527788,0.038466 -0.039074,0.00717 -0.07834,0.013431 -0.1170084,0.02173 -0.102609,0.02226 -0.2038007,0.048091 -0.3032491,0.078137 C 2.6756368,5.2220899 2.5036342,5.289058 2.3366,5.3656568 2.33531,5.3662533 2.3341,5.3669568 2.33281,5.3675568 0.95721771,6.0001572 -9.2683594e-5,7.3868114 -9.2683594e-5,9.0000108 l 4.8966753e-5,1.0299722 -2.0547977e-5,16.969921 c 0,2.208998 1.790998164818,4.000188 3.999995864818,4.000188 l 28.0000734,-4e-5 c 2.208998,0 4.000142,-1.791092 4.000142,-4.000089 l -2.8e-5,-17.9998937 c 0,-1.6120266 -0.95606,-2.9979051 -2.330042,-3.6311454 -0.0027,-0.00124 -0.0052,-0.0026 -0.0079,-0.00383 -0.166726,-0.076395 -0.338197,-0.1432673 -0.516289,-0.1964652 -0.09968,-0.030101 -0.20106,-0.056036 -0.303927,-0.078317 -0.03767,-0.00808 -0.07599,-0.014043 -0.114045,-0.021051 -0.04791,-0.00891 -0.09526,-0.019424 -0.143773,-0.026593 z" /></g></g><g
     inkscape:label="Count"
     inkscape:groupmode="layer"
     id="layer1"><ellipse
       style="fill:#ff5555;stroke:#ffffff;stroke-width:2.11667;stroke-linecap:round;stroke-dasharray:none;stroke-opacity:1"
       id="path5"
       cx="54.723675"
       cy="12.63929"
       rx="11.300055"
       ry="11.302969" /><text
       xml:space="preserve"
       style="font-size:14.1111px;line-height:1.25;font-family:'Segoe UI Symbol';-inkscape-font-specification:'Segoe UI Symbol';display:none;fill:#ffffff;stroke-width:0.264583"
       x="50.637794"
       y="17.679462"
       id="text5"><tspan
         sodipodi:role="line"
         id="tspan5"
         style="font-style:normal;font-variant:normal;font-weight:normal;font-stretch:normal;font-size:14.1111px;font-family:'Open Sans ExtraBold';-inkscape-font-specification:'Open Sans ExtraBold, ';fill:#ffffff;stroke-width:0.264583"
         x="50.637794"
         y="17.679462">3</tspan></text></g></svg>
