<?xml version="1.0" encoding="UTF-8"?>
<svg xmlns="http://www.w3.org/2000/svg" xmlns:xlink="http://www.w3.org/1999/xlink" width="360" height="100" viewBox="0 0 360 100">
<defs>
<linearGradient id="linear-pattern-0" gradientUnits="userSpaceOnUse" x1="0" y1="5" x2="360" y2="5">
<stop offset="0" stop-color="rgb(12.156863%, 46.666667%, 70.588235%)" stop-opacity="0"/>
<stop offset="0" stop-color="rgb(12.156863%, 46.666667%, 70.588235%)" stop-opacity="1"/>
<stop offset="1" stop-color="rgb(12.156863%, 46.666667%, 70.588235%)" stop-opacity="1"/>
<stop offset="1" stop-color="rgb(12.156863%, 46.666667%, 70.588235%)" stop-opacity="0"/>
</linearGradient>
<linearGradient id="linear-pattern-1" gradientUnits="userSpaceOnUse" x1="80" y1="23" x2="240" y2="23">
<stop offset="0" stop-color="rgb(17.254902%, 62.745098%, 17.254902%)" stop-opacity="0"/>
<stop offset="0.1875" stop-color="rgb(17.254902%, 62.745098%, 17.254902%)" stop-opacity="1"/>
<stop offset="0.8125" stop-color="rgb(17.254902%, 62.745098%, 17.254902%)" stop-opacity="1"/>
<stop offset="1" stop-color="rgb(17.254902%, 62.745098%, 17.254902%)" stop-opacity="0"/>
</linearGradient>
<linearGradient id="linear-pattern-2" gradientUnits="userSpaceOnUse" x1="140" y1="41" x2="280" y2="41">
<stop offset="0" stop-color="rgb(100%, 49.803922%, 5.490196%)" stop-opacity="0"/>
<stop offset="0.214286" stop-color="rgb(100%, 49.803922%, 5.490196%)" stop-opacity="1"/>
<stop offset="1" stop-color="rgb(100%, 49.803922%, 5.490196%)" stop-opacity="1"/>
<stop offset="1" stop-color="rgb(100%, 49.803922%, 5.490196%)" stop-opacity="0"/>
</linearGradient>
<linearGradient id="linear-pattern-3" gradientUnits="userSpaceOnUse" x1="200" y1="41" x2="310" y2="41">
<stop offset="0" stop-color="rgb(54.901961%, 33.72549%, 29.411765%)" stop-opacity="0"/>
<stop offset="0.363636" stop-color="rgb(54.901961%, 33.72549%, 29.411765%)" stop-opacity="1"/>
<stop offset="0.909091" stop-color="rgb(54.901961%, 33.72549%, 29.411765%)" stop-opacity="1"/>
<stop offset="1" stop-color="rgb(54.901961%, 33.72549%, 29.411765%)" stop-opacity="0"/>
</linearGradient>
<linearGradient id="linear-pattern-4" gradientUnits="userSpaceOnUse" x1="40" y1="59" x2="75" y2="59">
<stop offset="0" stop-color="rgb(83.921569%, 15.294118%, 15.686275%)" stop-opacity="0"/>
<stop offset="0.428571" stop-color="rgb(83.921569%, 15.294118%, 15.686275%)" stop-opacity="1"/>
<stop offset="0.571429" stop-color="rgb(83.921569%, 15.294118%, 15.686275%)" stop-opacity="1"/>
<stop offset="1" stop-color="rgb(83.921569%, 15.294118%, 15.686275%)" stop-opacity="0"/>
</linearGradient>
<linearGradient id="linear-pattern-5" gradientUnits="userSpaceOnUse" x1="80" y1="59" x2="115" y2="59">
<stop offset="0" stop-color="rgb(83.921569%, 15.294118%, 15.686275%)" stop-opacity="0"/>
<stop offset="0.428571" stop-color="rgb(83.921569%, 15.294118%, 15.686275%)" stop-opacity="1"/>
<stop offset="0.571429" stop-color="rgb(83.921569%, 15.294118%, 15.686275%)" stop-opacity="1"/>
<stop offset="1" stop-color="rgb(83.921569%, 15.294118%, 15.686275%)" stop-opacity="0"/>
</linearGradient>
<linearGradient id="linear-pattern-6" gradientUnits="userSpaceOnUse" x1="150" y1="59" x2="185" y2="59">
<stop offset="0" stop-color="rgb(83.921569%, 15.294118%, 15.686275%)" stop-opacity="0"/>
<stop offset="0.428571" stop-color="rgb(83.921569%, 15.294118%, 15.686275%)" stop-opacity="1"/>
<stop offset="0.571429" stop-color="rgb(83.921569%, 15.294118%, 15.686275%)" stop-opacity="1"/>
<stop offset="1" stop-color="rgb(83.921569%, 15.294118%, 15.686275%)" stop-opacity="0"/>
</linearGradient>
<linearGradient id="linear-pattern-7" gradientUnits="userSpaceOnUse" x1="230" y1="59" x2="265" y2="59">
<stop offset="0" stop-color="rgb(83.921569%, 15.294118%, 15.686275%)" stop-opacity="0"/>
<stop offset="0.428571" stop-color="rgb(83.921569%, 15.294118%, 15.686275%)" stop-opacity="1"/>
<stop offset="0.571429" stop-color="rgb(83.921569%, 15.294118%, 15.686275%)" stop-opacity="1"/>
<stop offset="1" stop-color="rgb(83.921569%, 15.294118%, 15.686275%)" stop-opacity="0"/>
</linearGradient>
<linearGradient id="linear-pattern-8" gradientUnits="userSpaceOnUse" x1="280" y1="59" x2="315" y2="59">
<stop offset="0" stop-color="rgb(83.921569%, 15.294118%, 15.686275%)" stop-opacity="0"/>
<stop offset="0.428571" stop-color="rgb(83.921569%, 15.294118%, 15.686275%)" stop-opacity="1"/>
<stop offset="0.571429" stop-color="rgb(83.921569%, 15.294118%, 15.686275%)" stop-opacity="1"/>
<stop offset="1" stop-color="rgb(83.921569%, 15.294118%, 15.686275%)" stop-opacity="0"/>
</linearGradient>
<linearGradient id="linear-pattern-9" gradientUnits="userSpaceOnUse" x1="15" y1="77" x2="360" y2="77">
<stop offset="0" stop-color="rgb(58.039216%, 40.392157%, 74.117647%)" stop-opacity="0"/>
<stop offset="0.057971" stop-color="rgb(58.039216%, 40.392157%, 74.117647%)" stop-opacity="1"/>
<stop offset="1" stop-color="rgb(58.039216%, 40.392157%, 74.117647%)" stop-opacity="1"/>
<stop offset="1" stop-color="rgb(58.039216%, 40.392157%, 74.117647%)" stop-opacity="0"/>
</linearGradient>
</defs>
<path fill="none" stroke-width="0.5" stroke-linecap="butt" stroke-linejoin="miter" stroke="rgb(70%, 70%, 70%)" stroke-opacity="1" stroke-miterlimit="10" d="M 0 100 L 0 2 M 60 100 L 60 2 M 120 100 L 120 2 M 180 100 L 180 2 M 240 100 L 240 2 M 300 100 L 300 2 M 360 100 L 360 2 "/>
<path fill-rule="nonzero" fill="url(#linear-pattern-0)" d="M 0 5 L 360 5 L 360 20 L 0 20 Z M 0 5 "/>
<path fill-rule="nonzero" fill="url(#linear-pattern-1)" d="M 80 23 L 240 23 L 240 38 L 80 38 Z M 80 23 "/>
<path fill-rule="nonzero" fill="url(#linear-pattern-2)" d="M 140 41 L 280 41 L 280 56 L 140 56 Z M 140 41 "/>
<path fill-rule="nonzero" fill="url(#linear-pattern-3)" d="M 200 41 L 310 41 L 310 56 L 200 56 Z M 200 41 "/>
<path fill-rule="nonzero" fill="url(#linear-pattern-4)" d="M 40 59 L 75 59 L 75 74 L 40 74 Z M 40 59 "/>
<path fill-rule="nonzero" fill="url(#linear-pattern-5)" d="M 80 59 L 115 59 L 115 74 L 80 74 Z M 80 59 "/>
<path fill-rule="nonzero" fill="url(#linear-pattern-6)" d="M 150 59 L 185 59 L 185 74 L 150 74 Z M 150 59 "/>
<path fill-rule="nonzero" fill="url(#linear-pattern-7)" d="M 230 59 L 265 59 L 265 74 L 230 74 Z M 230 59 "/>
<path fill-rule="nonzero" fill="url(#linear-pattern-8)" d="M 280 59 L 315 59 L 315 74 L 280 74 Z M 280 59 "/>
<path fill-rule="nonzero" fill="url(#linear-pattern-9)" d="M 15 77 L 360 77 L 360 92 L 15 92 Z M 15 77 "/>
</svg>
